<svg version="1.1" xmlns="http://www.w3.org/2000/svg" xmlns:xlink="http://www.w3.org/1999/xlink" width="1246.38525390625" height="970"><defs/><g><g transform="translate(-462,-54) scale(1,1)"><rect fill="#C0C0C0" stroke="none" x="991" y="455" width="221.06884765625" height="175" opacity="0.2"/></g><g transform="translate(-462,-54) scale(1,1)"><rect fill="#ffffff" stroke="none" x="984" y="448" width="221.06884765625" height="175"/></g><g transform="translate(-462,-54) scale(1,1)"><path fill="none" stroke="#000000" d="M 984 448 L 1205.06884765625 448 L 1205.06884765625 623 L 984 623 L 984 448 Z Z" stroke-miterlimit="10"/></g><g transform="translate(-462,-54) scale(1,1)"><path fill="none" stroke="#000000" d="M 984 473 L 1205.06884765625 473" stroke-miterlimit="10"/></g><g transform="translate(-462,-54) scale(1,1)"><path fill="none" stroke="#000000" d="M 984 556 L 1205.06884765625 556" stroke-miterlimit="10"/></g><g transform="translate(-462,-54) scale(1,1)"><g><path fill="none" stroke="none"/><text fill="#000000" stroke="none" font-family="Arial" font-size="13px" font-style="normal" font-weight="bold" text-decoration="none" x="1065.995361328125" y="467.5">Character</text></g></g><g transform="translate(-462,-54) scale(1,1)"><g><path fill="none" stroke="none"/><text fill="#000000" stroke="none" font-family="Arial" font-size="13px" font-style="normal" font-weight="normal" text-decoration="none" x="989" y="490.5">+PlayerName: String</text></g></g><g transform="translate(-462,-54) scale(1,1)"><g><path fill="none" stroke="none"/><text fill="#000000" stroke="none" font-family="Arial" font-size="13px" font-style="normal" font-weight="normal" text-decoration="none" x="989" y="505.5">+Life: float</text></g></g><g transform="translate(-462,-54) scale(1,1)"><g><path fill="none" stroke="none"/><text fill="#000000" stroke="none" font-family="Arial" font-size="13px" font-style="normal" font-weight="normal" text-decoration="none" x="989" y="520.5">+curState: PlayerState</text></g></g><g transform="translate(-462,-54) scale(1,1)"><g><path fill="none" stroke="none"/><text fill="#000000" stroke="none" font-family="Arial" font-size="13px" font-style="normal" font-weight="normal" text-decoration="none" x="989" y="535.5">+controller: CharacterStateController</text></g></g><g transform="translate(-462,-54) scale(1,1)"><g><path fill="none" stroke="none"/><text fill="#000000" stroke="none" font-family="Arial" font-size="13px" font-style="normal" font-weight="normal" text-decoration="none" x="989" y="550.5">-view: CharacterView</text></g></g><g transform="translate(-462,-54) scale(1,1)"><g><path fill="none" stroke="none"/><text fill="#000000" stroke="none" font-family="Arial" font-size="13px" font-style="normal" font-weight="normal" text-decoration="none" x="989" y="573.5">+update(): void</text></g></g><g transform="translate(-462,-54) scale(1,1)"><g><path fill="none" stroke="none"/><text fill="#000000" stroke="none" font-family="Arial" font-size="13px" font-style="normal" font-weight="normal" text-decoration="none" x="989" y="588.5">+stun(duration : float): void</text></g></g><g transform="translate(-462,-54) scale(1,1)"><g><path fill="none" stroke="none"/><text fill="#000000" stroke="none" font-family="Arial" font-size="13px" font-style="normal" font-weight="normal" text-decoration="none" x="989" y="603.5">+attack(amount: float): void</text></g></g><g transform="translate(-462,-54) scale(1,1)"><g><path fill="none" stroke="none"/><text fill="#000000" stroke="none" font-family="Arial" font-size="13px" font-style="normal" font-weight="normal" text-decoration="none" x="989" y="618.5">+damage(amount: float): void</text></g></g><g transform="translate(-462,-54) scale(1,1)"><rect fill="#C0C0C0" stroke="none" x="1351" y="455" width="221.39892578125" height="72" opacity="0.2"/></g><g transform="translate(-462,-54) scale(1,1)"><rect fill="#ffffff" stroke="none" x="1344" y="448" width="221.39892578125" height="72"/></g><g transform="translate(-462,-54) scale(1,1)"><path fill="none" stroke="#000000" d="M 1344 448 L 1565.39892578125 448 L 1565.39892578125 520 L 1344 520 L 1344 448 Z Z" stroke-miterlimit="10"/></g><g transform="translate(-462,-54) scale(1,1)"><path fill="none" stroke="#000000" d="M 1344 473 L 1565.39892578125 473" stroke-miterlimit="10"/></g><g transform="translate(-462,-54) scale(1,1)"><path fill="none" stroke="#000000" d="M 1344 496 L 1565.39892578125 496" stroke-miterlimit="10"/></g><g transform="translate(-462,-54) scale(1,1)"><g><path fill="none" stroke="none"/><text fill="#000000" stroke="none" font-family="Arial" font-size="13px" font-style="normal" font-weight="bold" text-decoration="none" x="1356.06640625" y="467.5">keyboardCharacterStateController</text></g></g><g transform="translate(-462,-54) scale(1,1)"><g><path fill="none" stroke="none"/><text fill="#000000" stroke="none" font-family="Arial" font-size="13px" font-style="normal" font-weight="normal" text-decoration="none" x="1349" y="490.5">-Key: sf::key:code</text></g></g><g transform="translate(-462,-54) scale(1,1)"><g><path fill="none" stroke="none"/><text fill="#000000" stroke="none" font-family="Arial" font-size="13px" font-style="normal" font-weight="normal" text-decoration="none" x="1349" y="513.5">+isMakingAction(): bool</text></g></g><g transform="translate(-462,-54) scale(1,1)"><rect fill="#C0C0C0" stroke="none" x="767" y="951" width="217.45703125" height="65" opacity="0.2"/></g><g transform="translate(-462,-54) scale(1,1)"><rect fill="#ffffff" stroke="none" x="760" y="944" width="217.45703125" height="65"/></g><g transform="translate(-462,-54) scale(1,1)"><path fill="none" stroke="#000000" d="M 760 944 L 977.45703125 944 L 977.45703125 1009 L 760 1009 L 760 944 Z Z" stroke-miterlimit="10"/></g><g transform="translate(-462,-54) scale(1,1)"><path fill="none" stroke="#000000" d="M 760 969 L 977.45703125 969" stroke-miterlimit="10"/></g><g transform="translate(-462,-54) scale(1,1)"><path fill="none" stroke="#000000" d="M 760 979 L 977.45703125 979" stroke-miterlimit="10"/></g><g transform="translate(-462,-54) scale(1,1)"><g><path fill="none" stroke="none"/><text fill="#000000" stroke="none" font-family="Arial" font-size="13px" font-style="normal" font-weight="bold" text-decoration="none" x="858.24853515625" y="963.5">Idle</text></g></g><g transform="translate(-462,-54) scale(1,1)"><g><path fill="none" stroke="none"/><text fill="#000000" stroke="none" font-family="Arial" font-size="13px" font-style="normal" font-weight="normal" text-decoration="none" x="765" y="996.5">+playAction(Character): PlayerState</text></g></g><g transform="translate(-462,-54) scale(1,1)"><rect fill="#C0C0C0" stroke="none" x="999" y="951" width="217.45703125" height="65" opacity="0.2"/></g><g transform="translate(-462,-54) scale(1,1)"><rect fill="#ffffff" stroke="none" x="992" y="944" width="217.45703125" height="65"/></g><g transform="translate(-462,-54) scale(1,1)"><path fill="none" stroke="#000000" d="M 992 944 L 1209.45703125 944 L 1209.45703125 1009 L 992 1009 L 992 944 Z Z" stroke-miterlimit="10"/></g><g transform="translate(-462,-54) scale(1,1)"><path fill="none" stroke="#000000" d="M 992 969 L 1209.45703125 969" stroke-miterlimit="10"/></g><g transform="translate(-462,-54) scale(1,1)"><path fill="none" stroke="#000000" d="M 992 979 L 1209.45703125 979" stroke-miterlimit="10"/></g><g transform="translate(-462,-54) scale(1,1)"><g><path fill="none" stroke="none"/><text fill="#000000" stroke="none" font-family="Arial" font-size="13px" font-style="normal" font-weight="bold" text-decoration="none" x="1084.833984375" y="963.5">Move</text></g></g><g transform="translate(-462,-54) scale(1,1)"><g><path fill="none" stroke="none"/><text fill="#000000" stroke="none" font-family="Arial" font-size="13px" font-style="normal" font-weight="normal" text-decoration="none" x="997" y="996.5">+playAction(Character): PlayerState</text></g></g><g transform="translate(-462,-54) scale(1,1)"><rect fill="#C0C0C0" stroke="none" x="1199" y="311" width="200" height="102" opacity="0.2"/></g><g transform="translate(-462,-54) scale(1,1)"><rect fill="#ffffff" stroke="none" x="1192" y="304" width="200" height="102"/></g><g transform="translate(-462,-54) scale(1,1)"><path fill="none" stroke="#000000" d="M 1192 304 L 1392 304 L 1392 406 L 1192 406 L 1192 304 Z Z" stroke-miterlimit="10"/></g><g transform="translate(-462,-54) scale(1,1)"><path fill="none" stroke="#000000" d="M 1192 329 L 1392 329" stroke-miterlimit="10"/></g><g transform="translate(-462,-54) scale(1,1)"><path fill="none" stroke="#000000" d="M 1192 339 L 1392 339" stroke-miterlimit="10"/></g><g transform="translate(-462,-54) scale(1,1)"><g><path fill="none" stroke="none"/><text fill="#000000" stroke="none" font-family="Arial" font-size="13px" font-style="normal" font-weight="bold" text-decoration="none" x="1249.372314453125" y="323.5">CharacterView</text></g></g><g transform="translate(-462,-54) scale(1,1)"><g><path fill="none" stroke="none"/><text fill="#000000" stroke="none" font-family="Arial" font-size="13px" font-style="italic" font-weight="normal" text-decoration="none" x="1197" y="356.5">+playDamage(): void</text></g></g><g transform="translate(-462,-54) scale(1,1)"><g><path fill="none" stroke="none"/><text fill="#000000" stroke="none" font-family="Arial" font-size="13px" font-style="italic" font-weight="normal" text-decoration="none" x="1197" y="371.5">+playBlock(): void</text></g></g><g transform="translate(-462,-54) scale(1,1)"><g><path fill="none" stroke="none"/><text fill="#000000" stroke="none" font-family="Arial" font-size="13px" font-style="italic" font-weight="normal" text-decoration="none" x="1197" y="386.5">+playMovingLeft(): void</text></g></g><g transform="translate(-462,-54) scale(1,1)"><g><path fill="none" stroke="none"/><text fill="#000000" stroke="none" font-family="Arial" font-size="13px" font-style="italic" font-weight="normal" text-decoration="none" x="1197" y="401.5">+playMovingRight(): void</text></g></g><g transform="translate(-462,-54) scale(1,1)"><rect fill="#C0C0C0" stroke="none" x="855" y="143" width="120" height="44" opacity="0.2"/></g><g transform="translate(-462,-54) scale(1,1)"><rect fill="#ffffff" stroke="none" x="848" y="136" width="120" height="44"/></g><g transform="translate(-462,-54) scale(1,1)"><path fill="none" stroke="#000000" d="M 848 136 L 968 136 L 968 180 L 848 180 L 848 136 Z Z" stroke-miterlimit="10"/></g><g transform="translate(-462,-54) scale(1,1)"><path fill="none" stroke="#000000" d="M 848 161 L 968 161" stroke-miterlimit="10"/></g><g transform="translate(-462,-54) scale(1,1)"><path fill="none" stroke="#000000" d="M 848 171 L 968 171" stroke-miterlimit="10"/></g><g transform="translate(-462,-54) scale(1,1)"><g><path fill="none" stroke="none"/><text fill="#000000" stroke="none" font-family="Arial" font-size="13px" font-style="normal" font-weight="bold" text-decoration="none" x="862.109619140625" y="155.5">AdventureMode</text></g></g><g transform="translate(-462,-54) scale(1,1)"><rect fill="#C0C0C0" stroke="none" x="983" y="247" width="120" height="57" opacity="0.2"/></g><g transform="translate(-462,-54) scale(1,1)"><rect fill="#ffffff" stroke="none" x="976" y="240" width="120" height="57"/></g><g transform="translate(-462,-54) scale(1,1)"><path fill="none" stroke="#000000" d="M 976 240 L 1096 240 L 1096 297 L 976 297 L 976 240 Z Z" stroke-miterlimit="10"/></g><g transform="translate(-462,-54) scale(1,1)"><path fill="none" stroke="#000000" d="M 976 265 L 1096 265" stroke-miterlimit="10"/></g><g transform="translate(-462,-54) scale(1,1)"><path fill="none" stroke="#000000" d="M 976 275 L 1096 275" stroke-miterlimit="10"/></g><g transform="translate(-462,-54) scale(1,1)"><g><path fill="none" stroke="none"/><text fill="#000000" stroke="none" font-family="Arial" font-size="13px" font-style="normal" font-weight="bold" text-decoration="none" x="985.425048828125" y="259.5">QuickMatchMode</text></g></g><g transform="translate(-462,-54) scale(1,1)"><g><path fill="none" stroke="none"/><text fill="#000000" stroke="none" font-family="Arial" font-size="13px" font-style="normal" font-weight="normal" text-decoration="none" x="981" y="292.5">+start(): void</text></g></g><g transform="translate(-462,-54) scale(1,1)"><rect fill="#C0C0C0" stroke="none" x="727" y="71" width="118.763671875" height="44" opacity="0.2"/></g><g transform="translate(-462,-54) scale(1,1)"><rect fill="#ffffff" stroke="none" x="720" y="64" width="118.763671875" height="44"/></g><g transform="translate(-462,-54) scale(1,1)"><path fill="none" stroke="#000000" d="M 720 64 L 838.763671875 64 L 838.763671875 108 L 720 108 L 720 64 Z Z" stroke-miterlimit="10"/></g><g transform="translate(-462,-54) scale(1,1)"><path fill="none" stroke="#000000" d="M 720 89 L 838.763671875 89" stroke-miterlimit="10"/></g><g transform="translate(-462,-54) scale(1,1)"><path fill="none" stroke="#000000" d="M 720 99 L 838.763671875 99" stroke-miterlimit="10"/></g><g transform="translate(-462,-54) scale(1,1)"><g><path fill="none" stroke="none"/><text fill="#000000" stroke="none" font-family="Arial" font-size="13px" font-style="normal" font-weight="bold" text-decoration="none" x="728.438720703125" y="83.5">CompetitionMode</text></g></g><g transform="translate(-462,-54) scale(1,1)"><rect fill="#C0C0C0" stroke="none" x="1127" y="71" width="89.57080078125" height="72" opacity="0.2"/></g><g transform="translate(-462,-54) scale(1,1)"><rect fill="#ffffff" stroke="none" x="1120" y="64" width="89.57080078125" height="72"/></g><g transform="translate(-462,-54) scale(1,1)"><path fill="none" stroke="#000000" d="M 1120 64 L 1209.57080078125 64 L 1209.57080078125 136 L 1120 136 L 1120 64 Z Z" stroke-miterlimit="10"/></g><g transform="translate(-462,-54) scale(1,1)"><path fill="none" stroke="#000000" d="M 1120 102 L 1209.57080078125 102" stroke-miterlimit="10"/></g><g transform="translate(-462,-54) scale(1,1)"><path fill="none" stroke="#000000" d="M 1120 112 L 1209.57080078125 112" stroke-miterlimit="10"/></g><g transform="translate(-462,-54) scale(1,1)"><g><path fill="none" stroke="none"/><text fill="#000000" stroke="none" font-family="Arial" font-size="13px" font-style="normal" font-weight="normal" text-decoration="none" x="1132.26318359375" y="81.5">«Interface»</text></g></g><g transform="translate(-462,-54) scale(1,1)"><g><path fill="none" stroke="none"/><text fill="#000000" stroke="none" font-family="Arial" font-size="13px" font-style="normal" font-weight="bold" text-decoration="none" x="1130.825439453125" y="96.5">GameMode</text></g></g><g transform="translate(-462,-54) scale(1,1)"><g><path fill="none" stroke="none"/><text fill="#000000" stroke="none" font-family="Arial" font-size="13px" font-style="italic" font-weight="normal" text-decoration="none" x="1125" y="129.5">+start(): void</text></g></g><g transform="translate(-462,-54) scale(1,1)"><rect fill="#C0C0C0" stroke="none" x="687" y="207" width="180.615234375" height="100" opacity="0.2"/></g><g transform="translate(-462,-54) scale(1,1)"><rect fill="#ffffff" stroke="none" x="680" y="200" width="180.615234375" height="100"/></g><g transform="translate(-462,-54) scale(1,1)"><path fill="none" stroke="#000000" d="M 680 200 L 860.615234375 200 L 860.615234375 300 L 680 300 L 680 200 Z Z" stroke-miterlimit="10"/></g><g transform="translate(-462,-54) scale(1,1)"><path fill="none" stroke="#000000" d="M 680 225 L 860.615234375 225" stroke-miterlimit="10"/></g><g transform="translate(-462,-54) scale(1,1)"><path fill="none" stroke="#000000" d="M 680 263 L 860.615234375 263" stroke-miterlimit="10"/></g><g transform="translate(-462,-54) scale(1,1)"><g><path fill="none" stroke="none"/><text fill="#000000" stroke="none" font-family="Arial" font-size="13px" font-style="normal" font-weight="bold" text-decoration="none" x="752.607177734375" y="219.5">Match</text></g></g><g transform="translate(-462,-54) scale(1,1)"><g><path fill="none" stroke="none"/><text fill="#000000" stroke="none" font-family="Arial" font-size="13px" font-style="normal" font-weight="normal" text-decoration="none" x="685" y="242.5">+players: Vector&lt;Character*&gt;</text></g></g><g transform="translate(-462,-54) scale(1,1)"><g><path fill="none" stroke="none"/><text fill="#000000" stroke="none" font-family="Arial" font-size="13px" font-style="normal" font-weight="normal" text-decoration="none" x="685" y="257.5">+timer: Timer</text></g></g><g transform="translate(-462,-54) scale(1,1)"><g><path fill="none" stroke="none"/><text fill="#000000" stroke="none" font-family="Arial" font-size="13px" font-style="normal" font-weight="normal" text-decoration="none" x="685" y="280.5">+startGame(): void</text></g></g><g transform="translate(-462,-54) scale(1,1)"><g><path fill="none" stroke="none"/><text fill="#000000" stroke="none" font-family="Arial" font-size="13px" font-style="normal" font-weight="normal" text-decoration="none" x="685" y="295.5">+update(): void</text></g></g><g transform="translate(-462,-54) scale(1,1)"><rect fill="#C0C0C0" stroke="none" x="1351" y="607" width="212.3916015625" height="100" opacity="0.2"/></g><g transform="translate(-462,-54) scale(1,1)"><rect fill="#ffffff" stroke="none" x="1344" y="600" width="212.3916015625" height="100"/></g><g transform="translate(-462,-54) scale(1,1)"><path fill="none" stroke="#000000" d="M 1344 600 L 1556.3916015625 600 L 1556.3916015625 700 L 1344 700 L 1344 600 Z Z" stroke-miterlimit="10"/></g><g transform="translate(-462,-54) scale(1,1)"><path fill="none" stroke="#000000" d="M 1344 638 L 1556.3916015625 638" stroke-miterlimit="10"/></g><g transform="translate(-462,-54) scale(1,1)"><path fill="none" stroke="#000000" d="M 1344 648 L 1556.3916015625 648" stroke-miterlimit="10"/></g><g transform="translate(-462,-54) scale(1,1)"><g><path fill="none" stroke="none"/><text fill="#000000" stroke="none" font-family="Arial" font-size="13px" font-style="normal" font-weight="normal" text-decoration="none" x="1418.035400390625" y="617.5">«interface»</text></g></g><g transform="translate(-462,-54) scale(1,1)"><g><path fill="none" stroke="none"/><text fill="#000000" stroke="none" font-family="Arial" font-size="13px" font-style="normal" font-weight="bold" text-decoration="none" x="1378.30224609375" y="632.5">CharacterStateController</text></g></g><g transform="translate(-462,-54) scale(1,1)"><g><path fill="none" stroke="none"/><text fill="#000000" stroke="none" font-family="Arial" font-size="13px" font-style="italic" font-weight="normal" text-decoration="none" x="1349" y="665.5">+isMakingAction(): bool</text></g></g><g transform="translate(-462,-54) scale(1,1)"><rect fill="#C0C0C0" stroke="none" x="1519" y="311" width="186.38525390625" height="57" opacity="0.2"/></g><g transform="translate(-462,-54) scale(1,1)"><rect fill="#ffffff" stroke="none" x="1512" y="304" width="186.38525390625" height="57"/></g><g transform="translate(-462,-54) scale(1,1)"><path fill="none" stroke="#000000" d="M 1512 304 L 1698.38525390625 304 L 1698.38525390625 361 L 1512 361 L 1512 304 Z Z" stroke-miterlimit="10"/></g><g transform="translate(-462,-54) scale(1,1)"><path fill="none" stroke="#000000" d="M 1512 329 L 1698.38525390625 329" stroke-miterlimit="10"/></g><g transform="translate(-462,-54) scale(1,1)"><path fill="none" stroke="#000000" d="M 1512 339 L 1698.38525390625 339" stroke-miterlimit="10"/></g><g transform="translate(-462,-54) scale(1,1)"><g><path fill="none" stroke="none"/><text fill="#000000" stroke="none" font-family="Arial" font-size="13px" font-style="normal" font-weight="bold" text-decoration="none" x="1541.24951171875" y="323.5">TextualCharacterView</text></g></g><g transform="translate(-462,-54) scale(1,1)"><g><path fill="none" stroke="none"/><text fill="#000000" stroke="none" font-family="Arial" font-size="13px" font-style="normal" font-weight="normal" text-decoration="none" x="1517" y="356.5">+playDamage(): void</text></g></g><g transform="translate(-462,-54) scale(1,1)"><rect fill="#C0C0C0" stroke="none" x="943" y="695" width="241.31787109375" height="83" opacity="0.2"/></g><g transform="translate(-462,-54) scale(1,1)"><rect fill="#ffffff" stroke="none" x="936" y="688" width="241.31787109375" height="83"/></g><g transform="translate(-462,-54) scale(1,1)"><path fill="none" stroke="#000000" d="M 936 688 L 1177.31787109375 688 L 1177.31787109375 771 L 936 771 L 936 688 Z Z" stroke-miterlimit="10"/></g><g transform="translate(-462,-54) scale(1,1)"><path fill="none" stroke="#000000" d="M 936 713 L 1177.31787109375 713" stroke-miterlimit="10"/></g><g transform="translate(-462,-54) scale(1,1)"><path fill="none" stroke="#000000" d="M 936 736 L 1177.31787109375 736" stroke-miterlimit="10"/></g><g transform="translate(-462,-54) scale(1,1)"><g><path fill="none" stroke="none"/><text fill="#000000" stroke="none" font-family="Arial" font-size="13px" font-style="italic" font-weight="bold" text-decoration="none" x="1012.942626953125" y="707.5">CharacterState</text></g></g><g transform="translate(-462,-54) scale(1,1)"><g><path fill="none" stroke="none"/><text fill="#000000" stroke="none" font-family="Arial" font-size="13px" font-style="normal" font-weight="normal" text-decoration="none" x="941" y="730.5">+Controller: CharacterStateController</text></g></g><g transform="translate(-462,-54) scale(1,1)"><g><path fill="none" stroke="none"/><text fill="#000000" stroke="none" font-family="Arial" font-size="13px" font-style="italic" font-weight="normal" text-decoration="none" x="941" y="753.5">+playAction(Character): PlayerState</text></g></g><g transform="translate(-462,-54) scale(1,1)"><path fill="none" stroke="#000000" d="M 1512 334 L 1392 334" stroke-miterlimit="10"/></g><g transform="translate(-462,-54) scale(1,1)"><path fill="#FFFFFF" stroke="none" d="M 1412.3253497152482 325.580964487968 L 1392 334 L 1412.3253497152482 342.419035512032"/></g><g transform="translate(-462,-54) scale(1,1)"><path fill="none" stroke="#000000" d="M 1412.3253497152482 325.580964487968 L 1392 334 L 1412.3253497152482 342.419035512032 L 1412.3253497152482 325.580964487968" stroke-miterlimit="10"/></g><g transform="translate(-462,-54) scale(1,1)"><path fill="none" stroke="#000000" d="M 839 99 L 1120 99" stroke-miterlimit="10" stroke-dasharray="3"/></g><g transform="translate(-462,-54) scale(1,1)"><path fill="none" stroke="#000000" d="M 1109.837325142376 103.20951775601598 L 1120 99 L 1109.837325142376 94.79048224398402" stroke-miterlimit="10"/></g><g transform="translate(-462,-54) scale(1,1)"><path fill="none" stroke="#000000" d="M 968 158 L 1136 158 L 1136 136" stroke-miterlimit="10" stroke-dasharray="3"/></g><g transform="translate(-462,-54) scale(1,1)"><path fill="none" stroke="#000000" d="M 1140.2095177560159 146.16267485762415 L 1136 136 L 1131.7904822439841 146.16267485762415" stroke-miterlimit="10"/></g><g transform="translate(-462,-54) scale(1,1)"><path fill="none" stroke="#000000" d="M 1096 262 L 1155 262 L 1155 136" stroke-miterlimit="10" stroke-dasharray="3"/></g><g transform="translate(-462,-54) scale(1,1)"><path fill="none" stroke="#000000" d="M 1159.2095177560159 146.16267485762415 L 1155 136 L 1150.7904822439841 146.16267485762415" stroke-miterlimit="10"/></g><g transform="translate(-462,-54) scale(1,1)"><path fill="none" stroke="#000000" d="M 861 272 L 976 272" stroke-miterlimit="10"/></g><g transform="translate(-462,-54) scale(1,1)"><g><path fill="none" stroke="none"/><text fill="#000000" stroke="none" font-family="Arial" font-size="13px" font-style="normal" font-weight="normal" text-decoration="none" x="874" y="264">+1.n</text></g></g><g transform="translate(-462,-54) scale(1,1)"><g><path fill="none" stroke="none"/><text fill="#000000" stroke="none" font-family="Arial" font-size="13px" font-style="normal" font-weight="normal" text-decoration="none" x="938" y="264">+0.1</text></g></g><g transform="translate(-462,-54) scale(1,1)"><path fill="none" stroke="#000000" d="M 768 108 L 768 200" stroke-miterlimit="10"/></g><g transform="translate(-462,-54) scale(1,1)"><g><path fill="none" stroke="none"/><text fill="#000000" stroke="none" font-family="Arial" font-size="13px" font-style="normal" font-weight="normal" text-decoration="none" x="771" y="140">+0.1</text></g></g><g transform="translate(-462,-54) scale(1,1)"><g><path fill="none" stroke="none"/><text fill="#000000" stroke="none" font-family="Arial" font-size="13px" font-style="normal" font-weight="normal" text-decoration="none" x="771" y="181">+1.n</text></g></g><g transform="translate(-462,-54) scale(1,1)"><path fill="none" stroke="#000000" d="M 936 180 L 936 216 L 861 216" stroke-miterlimit="10"/></g><g transform="translate(-462,-54) scale(1,1)"><g><path fill="none" stroke="none"/><text fill="#000000" stroke="none" font-family="Arial" font-size="13px" font-style="normal" font-weight="normal" text-decoration="none" x="939" y="212">+0.1</text></g></g><g transform="translate(-462,-54) scale(1,1)"><g><path fill="none" stroke="none"/><text fill="#000000" stroke="none" font-family="Arial" font-size="13px" font-style="normal" font-weight="normal" text-decoration="none" x="874" y="237">+1.n</text></g></g><g transform="translate(-462,-54) scale(1,1)"><path fill="none" stroke="#000000" d="M 984 496 L 800 496 L 800 300" stroke-miterlimit="10"/></g><g transform="translate(-462,-54) scale(1,1)"><path fill="#FFFFFF" stroke="none" d="M 804.209517756016 310.16267485762415 L 800 300 L 795.790482243984 310.16267485762415 L 800 322"/></g><g transform="translate(-462,-54) scale(1,1)"><path fill="none" stroke="#000000" d="M 804.209517756016 310.16267485762415 L 800 300 L 795.790482243984 310.16267485762415 L 800 322 L 804.209517756016 310.16267485762415" stroke-miterlimit="10"/></g><g transform="translate(-462,-54) scale(1,1)"><path fill="none" stroke="#000000" d="M 1120 448 L 1120 336 L 1192 336" stroke-miterlimit="10"/></g><g transform="translate(-462,-54) scale(1,1)"><path fill="#000000" stroke="none" d="M 1181.837325142376 340.209517756016 L 1192 336 L 1181.837325142376 331.790482243984 L 1170 336"/></g><g transform="translate(-462,-54) scale(1,1)"><path fill="none" stroke="#000000" d="M 1181.837325142376 340.209517756016 L 1192 336 L 1181.837325142376 331.790482243984 L 1170 336 L 1181.837325142376 340.209517756016" stroke-miterlimit="10"/></g><g transform="translate(-462,-54) scale(1,1)"><path fill="none" stroke="#000000" d="M 1080 623 L 1080 688" stroke-miterlimit="10"/></g><g transform="translate(-462,-54) scale(1,1)"><rect fill="#C0C0C0" stroke="none" x="479" y="455" width="201.5498046875" height="70" opacity="0.2"/></g><g transform="translate(-462,-54) scale(1,1)"><rect fill="#ffffff" stroke="none" x="472" y="448" width="201.5498046875" height="70"/></g><g transform="translate(-462,-54) scale(1,1)"><path fill="none" stroke="#000000" d="M 472 448 L 673.5498046875 448 L 673.5498046875 518 L 472 518 L 472 448 Z Z" stroke-miterlimit="10"/></g><g transform="translate(-462,-54) scale(1,1)"><path fill="none" stroke="#000000" d="M 472 473 L 673.5498046875 473" stroke-miterlimit="10"/></g><g transform="translate(-462,-54) scale(1,1)"><path fill="none" stroke="#000000" d="M 472 496 L 673.5498046875 496" stroke-miterlimit="10"/></g><g transform="translate(-462,-54) scale(1,1)"><g><path fill="none" stroke="none"/><text fill="#000000" stroke="none" font-family="Arial" font-size="13px" font-style="italic" font-weight="bold" text-decoration="none" x="539.535400390625" y="467.5">Observable</text></g></g><g transform="translate(-462,-54) scale(1,1)"><g><path fill="none" stroke="none"/><text fill="#000000" stroke="none" font-family="Arial" font-size="13px" font-style="normal" font-weight="normal" text-decoration="none" x="477" y="490.5">+ObserverList: vector&lt;Observer&gt;</text></g></g><g transform="translate(-462,-54) scale(1,1)"><g><path fill="none" stroke="none"/><text fill="#000000" stroke="none" font-family="Arial" font-size="13px" font-style="normal" font-weight="normal" text-decoration="none" x="477" y="513.5">+notifyObservers(): void</text></g></g><g transform="translate(-462,-54) scale(1,1)"><rect fill="#C0C0C0" stroke="none" x="487" y="255" width="97" height="102" opacity="0.2"/></g><g transform="translate(-462,-54) scale(1,1)"><rect fill="#ffffff" stroke="none" x="480" y="248" width="97" height="102"/></g><g transform="translate(-462,-54) scale(1,1)"><path fill="none" stroke="#000000" d="M 480 248 L 577 248 L 577 350 L 480 350 L 480 248 Z Z" stroke-miterlimit="10"/></g><g transform="translate(-462,-54) scale(1,1)"><path fill="none" stroke="#000000" d="M 480 286 L 577 286" stroke-miterlimit="10"/></g><g transform="translate(-462,-54) scale(1,1)"><path fill="none" stroke="#000000" d="M 480 296 L 577 296" stroke-miterlimit="10"/></g><g transform="translate(-462,-54) scale(1,1)"><g><path fill="none" stroke="none"/><text fill="#000000" stroke="none" font-family="Arial" font-size="13px" font-style="normal" font-weight="normal" text-decoration="none" x="496.339599609375" y="265.5">«interface»</text></g></g><g transform="translate(-462,-54) scale(1,1)"><g><path fill="none" stroke="none"/><text fill="#000000" stroke="none" font-family="Arial" font-size="13px" font-style="normal" font-weight="bold" text-decoration="none" x="501.77001953125" y="280.5">Observer</text></g></g><g transform="translate(-462,-54) scale(1,1)"><g><path fill="none" stroke="none"/><text fill="#000000" stroke="none" font-family="Arial" font-size="13px" font-style="italic" font-weight="normal" text-decoration="none" x="485" y="313.5">+update(): void</text></g></g><g transform="translate(-462,-54) scale(1,1)"><rect fill="#C0C0C0" stroke="none" x="1311" y="79" width="93.880859375" height="57" opacity="0.2"/></g><g transform="translate(-462,-54) scale(1,1)"><rect fill="#ffffff" stroke="none" x="1304" y="72" width="93.880859375" height="57"/></g><g transform="translate(-462,-54) scale(1,1)"><path fill="none" stroke="#000000" d="M 1304 72 L 1397.880859375 72 L 1397.880859375 129 L 1304 129 L 1304 72 Z Z" stroke-miterlimit="10"/></g><g transform="translate(-462,-54) scale(1,1)"><path fill="none" stroke="#000000" d="M 1304 97 L 1397.880859375 97" stroke-miterlimit="10"/></g><g transform="translate(-462,-54) scale(1,1)"><path fill="none" stroke="#000000" d="M 1304 107 L 1397.880859375 107" stroke-miterlimit="10"/></g><g transform="translate(-462,-54) scale(1,1)"><g><path fill="none" stroke="none"/><text fill="#000000" stroke="none" font-family="Arial" font-size="13px" font-style="normal" font-weight="bold" text-decoration="none" x="1318.069091796875" y="91.5">TextFighter</text></g></g><g transform="translate(-462,-54) scale(1,1)"><g><path fill="none" stroke="none"/><text fill="#000000" stroke="none" font-family="Arial" font-size="13px" font-style="normal" font-weight="normal" text-decoration="none" x="1309" y="124.5">+Main(): int</text><path fill="none" stroke="#000000" d="M 1309 124.5 L 1374.380859375 124.5" stroke-miterlimit="10"/></g></g><g transform="translate(-462,-54) scale(1,1)"><path fill="none" stroke="#000000" d="M 1303 100 L 1211 100" stroke-miterlimit="10"/></g><g transform="translate(-462,-54) scale(1,1)"><g><path fill="none" stroke="none"/><text fill="#000000" stroke="none" font-family="Arial" font-size="13px" font-style="normal" font-weight="normal" text-decoration="none" x="1224" y="122">+PlayMode</text></g></g><g transform="translate(-462,-54) scale(1,1)"><path fill="none" stroke="#000000" d="M 1474 520 L 1474 600" stroke-miterlimit="10" stroke-dasharray="3"/></g><g transform="translate(-462,-54) scale(1,1)"><path fill="none" stroke="#000000" d="M 1469.7904822439841 589.8373251423759 L 1474 600 L 1478.2095177560159 589.8373251423759" stroke-miterlimit="10"/></g><g transform="translate(-462,-54) scale(1,1)"><rect fill="#C0C0C0" stroke="none" x="1463" y="951" width="216.7333984375" height="70" opacity="0.2"/></g><g transform="translate(-462,-54) scale(1,1)"><rect fill="#ffffff" stroke="none" x="1456" y="944" width="216.7333984375" height="70"/></g><g transform="translate(-462,-54) scale(1,1)"><path fill="none" stroke="#000000" d="M 1456 944 L 1672.7333984375 944 L 1672.7333984375 1014 L 1456 1014 L 1456 944 Z Z" stroke-miterlimit="10"/></g><g transform="translate(-462,-54) scale(1,1)"><path fill="none" stroke="#000000" d="M 1456 969 L 1672.7333984375 969" stroke-miterlimit="10"/></g><g transform="translate(-462,-54) scale(1,1)"><path fill="none" stroke="#000000" d="M 1456 992 L 1672.7333984375 992" stroke-miterlimit="10"/></g><g transform="translate(-462,-54) scale(1,1)"><g><path fill="none" stroke="none"/><text fill="#000000" stroke="none" font-family="Arial" font-size="13px" font-style="normal" font-weight="bold" text-decoration="none" x="1548.47216796875" y="963.5">Block</text></g></g><g transform="translate(-462,-54) scale(1,1)"><g><path fill="none" stroke="none"/><text fill="#000000" stroke="none" font-family="Arial" font-size="13px" font-style="normal" font-weight="normal" text-decoration="none" x="1461" y="986.5">#blockDamageMult: float</text></g></g><g transform="translate(-462,-54) scale(1,1)"><g><path fill="none" stroke="none"/><text fill="#000000" stroke="none" font-family="Arial" font-size="13px" font-style="normal" font-weight="normal" text-decoration="none" x="1461" y="1009.5">+playAction(Character): PlayerState</text></g></g><g transform="translate(-462,-54) scale(1,1)"><path fill="none" stroke="#000000" d="M 984 561 L 587 561 L 587 518" stroke-miterlimit="10"/></g><g transform="translate(-462,-54) scale(1,1)"><path fill="#FFFFFF" stroke="none" d="M 595.419035512032 538.3253497152483 L 587 518 L 578.580964487968 538.3253497152483"/></g><g transform="translate(-462,-54) scale(1,1)"><path fill="none" stroke="#000000" d="M 595.419035512032 538.3253497152483 L 587 518 L 578.580964487968 538.3253497152483 L 595.419035512032 538.3253497152483" stroke-miterlimit="10"/></g><g transform="translate(-462,-54) scale(1,1)"><path fill="none" stroke="#000000" d="M 680 290 L 577 290" stroke-miterlimit="10" stroke-dasharray="3"/></g><g transform="translate(-462,-54) scale(1,1)"><path fill="none" stroke="#000000" d="M 587.1626748576241 285.790482243984 L 577 290 L 587.1626748576241 294.209517756016" stroke-miterlimit="10"/></g><g transform="translate(-462,-54) scale(1,1)"><path fill="none" stroke="#000000" d="M 544 350 L 544 448" stroke-miterlimit="10"/></g><g transform="translate(-462,-54) scale(1,1)"><path fill="#FFFFFF" stroke="none" d="M 539.790482243984 437.83732514237585 L 544 448 L 548.209517756016 437.83732514237585 L 544 426"/></g><g transform="translate(-462,-54) scale(1,1)"><path fill="none" stroke="#000000" d="M 539.790482243984 437.83732514237585 L 544 448 L 548.209517756016 437.83732514237585 L 544 426 L 539.790482243984 437.83732514237585" stroke-miterlimit="10"/></g><g transform="translate(-462,-54) scale(1,1)"><g><path fill="none" stroke="none"/><text fill="#000000" stroke="none" font-family="Arial" font-size="13px" font-style="normal" font-weight="normal" text-decoration="none" x="557" y="642">Patrons utilisés:</text></g></g><g transform="translate(-462,-54) scale(1,1)"><g><path fill="none" stroke="none"/><text fill="#000000" stroke="none" font-family="Arial" font-size="13px" font-style="normal" font-weight="normal" text-decoration="none" x="557" y="666">-Observer (Character et Match)</text></g></g><g transform="translate(-462,-54) scale(1,1)"><g><path fill="none" stroke="none"/><text fill="#000000" stroke="none" font-family="Arial" font-size="13px" font-style="normal" font-weight="normal" text-decoration="none" x="557" y="690">-State (CharacterState et Character)</text></g></g><g transform="translate(-462,-54) scale(1,1)"><g><path fill="none" stroke="none"/><text fill="#000000" stroke="none" font-family="Arial" font-size="13px" font-style="normal" font-weight="normal" text-decoration="none" x="557" y="714">-Strategy (CharacterController/view)</text></g></g><g transform="translate(-462,-54) scale(1,1)"><g><path fill="none" stroke="none"/><text fill="#000000" stroke="none" font-family="Arial" font-size="13px" font-style="normal" font-weight="normal" text-decoration="none" x="557" y="738">-Decorator (CharacterStateDecorator) (non-développé)</text></g></g><g transform="translate(-462,-54) scale(1,1)"><rect fill="#C0C0C0" stroke="none" x="1231" y="951" width="216.7333984375" height="65" opacity="0.2"/></g><g transform="translate(-462,-54) scale(1,1)"><rect fill="#ffffff" stroke="none" x="1224" y="944" width="216.7333984375" height="65"/></g><g transform="translate(-462,-54) scale(1,1)"><path fill="none" stroke="#000000" d="M 1224 944 L 1440.7333984375 944 L 1440.7333984375 1009 L 1224 1009 L 1224 944 Z Z" stroke-miterlimit="10"/></g><g transform="translate(-462,-54) scale(1,1)"><path fill="none" stroke="#000000" d="M 1224 969 L 1440.7333984375 969" stroke-miterlimit="10"/></g><g transform="translate(-462,-54) scale(1,1)"><path fill="none" stroke="#000000" d="M 1224 979 L 1440.7333984375 979" stroke-miterlimit="10"/></g><g transform="translate(-462,-54) scale(1,1)"><g><path fill="none" stroke="none"/><text fill="#000000" stroke="none" font-family="Arial" font-size="13px" font-style="normal" font-weight="bold" text-decoration="none" x="1318.995361328125" y="963.5">Stun</text></g></g><g transform="translate(-462,-54) scale(1,1)"><g><path fill="none" stroke="none"/><text fill="#000000" stroke="none" font-family="Arial" font-size="13px" font-style="normal" font-weight="normal" text-decoration="none" x="1229" y="996.5">+playAction(Character): PlayerState</text></g></g><g transform="translate(-462,-54) scale(1,1)"><g><path fill="none" stroke="none"/><text fill="#000000" stroke="none" font-family="Arial" font-size="13px" font-style="normal" font-weight="normal" text-decoration="none" x="557" y="786">-MVC (architecture générale)</text></g></g><g transform="translate(-462,-54) scale(1,1)"><g><path fill="none" stroke="none"/><text fill="#000000" stroke="none" font-family="Arial" font-size="13px" font-style="normal" font-weight="normal" text-decoration="none" x="557" y="762">-Template method (CharacterState)</text></g></g><g transform="translate(-462,-54) scale(1,1)"><path fill="none" stroke="#000000" d="M 1344 688 L 1177 688" stroke-miterlimit="10"/></g><g transform="translate(-462,-54) scale(1,1)"><path fill="#000000" stroke="none" d="M 1187.162674857624 683.790482243984 L 1177 688 L 1187.162674857624 692.209517756016 L 1199 688"/></g><g transform="translate(-462,-54) scale(1,1)"><path fill="none" stroke="#000000" d="M 1187.162674857624 683.790482243984 L 1177 688 L 1187.162674857624 692.209517756016 L 1199 688 L 1187.162674857624 683.790482243984" stroke-miterlimit="10"/></g><g transform="translate(-462,-54) scale(1,1)"><rect fill="#C0C0C0" stroke="none" x="1007" y="823" width="144.10986328125" height="44" opacity="0.2"/></g><g transform="translate(-462,-54) scale(1,1)"><rect fill="#ffffff" stroke="none" x="1000" y="816" width="144.10986328125" height="44"/></g><g transform="translate(-462,-54) scale(1,1)"><path fill="none" stroke="#000000" d="M 1000 816 L 1144.10986328125 816 L 1144.10986328125 860 L 1000 860 L 1000 816 Z Z" stroke-miterlimit="10"/></g><g transform="translate(-462,-54) scale(1,1)"><path fill="none" stroke="#000000" d="M 1000 841 L 1144.10986328125 841" stroke-miterlimit="10"/></g><g transform="translate(-462,-54) scale(1,1)"><path fill="none" stroke="#000000" d="M 1000 851 L 1144.10986328125 851" stroke-miterlimit="10"/></g><g transform="translate(-462,-54) scale(1,1)"><g><path fill="none" stroke="none"/><text fill="#000000" stroke="none" font-family="Arial" font-size="13px" font-style="normal" font-weight="bold" text-decoration="none" x="1008.470458984375" y="835.5">SimpleCharacterState</text></g></g><g transform="translate(-462,-54) scale(1,1)"><path fill="none" stroke="#000000" d="M 1072 816 L 1072 771" stroke-miterlimit="10" stroke-dasharray="3"/></g><g transform="translate(-462,-54) scale(1,1)"><path fill="none" stroke="#000000" d="M 1076.2095177560159 781.1626748576241 L 1072 771 L 1067.7904822439841 781.1626748576241" stroke-miterlimit="10"/></g><g transform="translate(-462,-54) scale(1,1)"><path fill="none" stroke="#000000" d="M 864 944 L 864 920 L 1080 920 L 1080 860" stroke-miterlimit="10"/></g><g transform="translate(-462,-54) scale(1,1)"><path fill="#FFFFFF" stroke="none" d="M 1088.419035512032 880.3253497152483 L 1080 860 L 1071.580964487968 880.3253497152483"/></g><g transform="translate(-462,-54) scale(1,1)"><path fill="none" stroke="#000000" d="M 1088.419035512032 880.3253497152483 L 1080 860 L 1071.580964487968 880.3253497152483 L 1088.419035512032 880.3253497152483" stroke-miterlimit="10"/></g><g transform="translate(-462,-54) scale(1,1)"><path fill="none" stroke="#000000" d="M 1096 944 L 1096 920 L 1080 920 L 1080 860" stroke-miterlimit="10"/></g><g transform="translate(-462,-54) scale(1,1)"><path fill="#FFFFFF" stroke="none" d="M 1088.419035512032 880.3253497152483 L 1080 860 L 1071.580964487968 880.3253497152483"/></g><g transform="translate(-462,-54) scale(1,1)"><path fill="none" stroke="#000000" d="M 1088.419035512032 880.3253497152483 L 1080 860 L 1071.580964487968 880.3253497152483 L 1088.419035512032 880.3253497152483" stroke-miterlimit="10"/></g><g transform="translate(-462,-54) scale(1,1)"><path fill="none" stroke="#000000" d="M 1336 944 L 1336 920 L 1080 920 L 1080 860" stroke-miterlimit="10"/></g><g transform="translate(-462,-54) scale(1,1)"><path fill="#FFFFFF" stroke="none" d="M 1088.419035512032 880.3253497152483 L 1080 860 L 1071.580964487968 880.3253497152483"/></g><g transform="translate(-462,-54) scale(1,1)"><path fill="none" stroke="#000000" d="M 1088.419035512032 880.3253497152483 L 1080 860 L 1071.580964487968 880.3253497152483 L 1088.419035512032 880.3253497152483" stroke-miterlimit="10"/></g><g transform="translate(-462,-54) scale(1,1)"><path fill="none" stroke="#000000" d="M 1568 944 L 1568 920 L 1080 920 L 1080 860" stroke-miterlimit="10"/></g><g transform="translate(-462,-54) scale(1,1)"><path fill="#FFFFFF" stroke="none" d="M 1088.419035512032 880.3253497152483 L 1080 860 L 1071.580964487968 880.3253497152483"/></g><g transform="translate(-462,-54) scale(1,1)"><path fill="none" stroke="#000000" d="M 1088.419035512032 880.3253497152483 L 1080 860 L 1071.580964487968 880.3253497152483 L 1088.419035512032 880.3253497152483" stroke-miterlimit="10"/></g><g transform="translate(-462,-54) scale(1,1)"><path fill="none" stroke="#000000" d="M 936 736 L 912 736 L 912 656 L 1008 656 L 1008 688" stroke-miterlimit="10"/></g><g transform="translate(-462,-54) scale(1,1)"><path fill="#FFFFFF" stroke="none" d="M 1003.790482243984 677.8373251423759 L 1008 688 L 1012.209517756016 677.8373251423759 L 1008 666"/></g><g transform="translate(-462,-54) scale(1,1)"><path fill="none" stroke="#000000" d="M 1003.790482243984 677.8373251423759 L 1008 688 L 1012.209517756016 677.8373251423759 L 1008 666 L 1003.790482243984 677.8373251423759" stroke-miterlimit="10"/></g><g transform="translate(-462,-54) scale(1,1)"><rect fill="#C0C0C0" stroke="none" x="583" y="951" width="168" height="64" opacity="0.2"/></g><g transform="translate(-462,-54) scale(1,1)"><rect fill="#ffffff" stroke="none" x="576" y="944" width="168" height="64"/></g><g transform="translate(-462,-54) scale(1,1)"><path fill="none" stroke="#000000" d="M 576 944 L 744 944 L 744 1008 L 576 1008 L 576 944 Z Z" stroke-miterlimit="10"/></g><g transform="translate(-462,-54) scale(1,1)"><path fill="none" stroke="#000000" d="M 576 969 L 744 969" stroke-miterlimit="10"/></g><g transform="translate(-462,-54) scale(1,1)"><path fill="none" stroke="#000000" d="M 576 992 L 744 992" stroke-miterlimit="10"/></g><g transform="translate(-462,-54) scale(1,1)"><g><path fill="none" stroke="none"/><text fill="#000000" stroke="none" font-family="Arial" font-size="13px" font-style="normal" font-weight="bold" text-decoration="none" x="641.937744140625" y="963.5">Attack</text></g></g><g transform="translate(-462,-54) scale(1,1)"><g><path fill="none" stroke="none"/><text fill="#000000" stroke="none" font-family="Arial" font-size="13px" font-style="normal" font-weight="normal" text-decoration="none" x="581" y="986.5">#Amount: float</text></g></g><g transform="translate(-462,-54) scale(1,1)"><path fill="none" stroke="#000000" d="M 664 944 L 664 920 L 1080 920 L 1080 860" stroke-miterlimit="10"/></g><g transform="translate(-462,-54) scale(1,1)"><path fill="#FFFFFF" stroke="none" d="M 1088.419035512032 880.3253497152483 L 1080 860 L 1071.580964487968 880.3253497152483"/></g><g transform="translate(-462,-54) scale(1,1)"><path fill="none" stroke="#000000" d="M 1088.419035512032 880.3253497152483 L 1080 860 L 1071.580964487968 880.3253497152483 L 1088.419035512032 880.3253497152483" stroke-miterlimit="10"/></g><g transform="translate(-462,-54) scale(1,1)"><rect fill="#C0C0C0" stroke="none" x="631" y="343" width="124.25439453125" height="100" opacity="0.2"/></g><g transform="translate(-462,-54) scale(1,1)"><rect fill="#ffffff" stroke="none" x="624" y="336" width="124.25439453125" height="100"/></g><g transform="translate(-462,-54) scale(1,1)"><path fill="none" stroke="#000000" d="M 624 336 L 748.25439453125 336 L 748.25439453125 436 L 624 436 L 624 336 Z Z" stroke-miterlimit="10"/></g><g transform="translate(-462,-54) scale(1,1)"><path fill="none" stroke="#000000" d="M 624 361 L 748.25439453125 361" stroke-miterlimit="10"/></g><g transform="translate(-462,-54) scale(1,1)"><path fill="none" stroke="#000000" d="M 624 399 L 748.25439453125 399" stroke-miterlimit="10"/></g><g transform="translate(-462,-54) scale(1,1)"><g><path fill="none" stroke="none"/><text fill="#000000" stroke="none" font-family="Arial" font-size="13px" font-style="normal" font-weight="bold" text-decoration="none" x="669.5185546875" y="355.5">Timer</text></g></g><g transform="translate(-462,-54) scale(1,1)"><g><path fill="none" stroke="none"/><text fill="#000000" stroke="none" font-family="Arial" font-size="13px" font-style="normal" font-weight="normal" text-decoration="none" x="629" y="378.5">+ElapsedTime: float</text></g></g><g transform="translate(-462,-54) scale(1,1)"><g><path fill="none" stroke="none"/><text fill="#000000" stroke="none" font-family="Arial" font-size="13px" font-style="normal" font-weight="normal" text-decoration="none" x="629" y="393.5">+MaxTime: float</text></g></g><g transform="translate(-462,-54) scale(1,1)"><g><path fill="none" stroke="none"/><text fill="#000000" stroke="none" font-family="Arial" font-size="13px" font-style="normal" font-weight="normal" text-decoration="none" x="629" y="416.5">+update(): void</text></g></g><g transform="translate(-462,-54) scale(1,1)"><g><path fill="none" stroke="none"/><text fill="#000000" stroke="none" font-family="Arial" font-size="13px" font-style="normal" font-weight="normal" text-decoration="none" x="629" y="431.5">+hasEnded(): bool</text></g></g><g transform="translate(-462,-54) scale(1,1)"><path fill="none" stroke="#000000" d="M 686 436 L 686 483 L 674 483" stroke-miterlimit="10" stroke-dasharray="3"/></g><g transform="translate(-462,-54) scale(1,1)"><path fill="none" stroke="#000000" d="M 684.1626748576241 478.790482243984 L 674 483 L 684.1626748576241 487.209517756016" stroke-miterlimit="10"/></g><g transform="translate(-462,-54) scale(1,1)"><path fill="none" stroke="#000000" d="M 739 336 L 739 300" stroke-miterlimit="10"/></g><g transform="translate(-462,-54) scale(1,1)"><path fill="#000000" stroke="none" d="M 743.209517756016 310.16267485762415 L 739 300 L 734.790482243984 310.16267485762415 L 739 322"/></g><g transform="translate(-462,-54) scale(1,1)"><path fill="none" stroke="#000000" d="M 743.209517756016 310.16267485762415 L 739 300 L 734.790482243984 310.16267485762415 L 739 322 L 743.209517756016 310.16267485762415" stroke-miterlimit="10"/></g></g></svg>